<svg xmlns="http://www.w3.org/2000/svg" xmlns:xlink="http://www.w3.org/1999/xlink" width="100" zoomAndPan="magnify" viewBox="0 0 75 74.999997" height="100" preserveAspectRatio="xMidYMid meet" version="1.0"><defs><g/></defs><rect x="-7.5" width="90" fill="#ffffff" y="-7.5" height="89.999996" fill-opacity="1"/><rect x="-7.5" width="90" fill="#63b7db" y="-7.5" height="89.999996" fill-opacity="1"/><g fill="#ffffff" fill-opacity="1"><g transform="translate(0.0000015, 61.807367)"><g><path d="M 4.8125 0.75 L 4.8125 -56.484375 L 24.328125 -58.21875 C 24.628906 -58.269531 24.914062 -58.296875 25.1875 -58.296875 C 25.46875 -58.296875 25.757812 -58.296875 26.0625 -58.296875 C 28.070312 -58.296875 30.003906 -57.992188 31.859375 -57.390625 C 33.710938 -56.785156 35.671875 -56.003906 37.734375 -55.046875 C 41.597656 -53.347656 44.535156 -51.050781 46.546875 -48.15625 C 48.554688 -45.269531 49.5625 -41.519531 49.5625 -36.90625 C 49.5625 -30.570312 47.953125 -25.546875 44.734375 -21.828125 C 41.523438 -18.117188 37.15625 -16.039062 31.625 -15.59375 L 25.3125 -15.0625 L 25.3125 3.390625 L 12.34375 4.515625 Z M 24.03125 -20.109375 C 29.394531 -20.554688 33.609375 -22.578125 36.671875 -26.171875 C 39.734375 -29.765625 41.265625 -34.597656 41.265625 -40.671875 C 41.265625 -44.035156 40.660156 -46.972656 39.453125 -49.484375 C 38.253906 -51.992188 36.535156 -53.960938 34.296875 -55.390625 C 32.066406 -56.816406 29.367188 -57.53125 26.203125 -57.53125 C 25.898438 -57.53125 25.597656 -57.53125 25.296875 -57.53125 C 25.003906 -57.53125 24.707031 -57.507812 24.40625 -57.46875 L 5.578125 -55.8125 L 5.578125 0 L 17.015625 -0.984375 L 17.015625 -19.5 Z M 17.015625 -45.9375 L 22.140625 -46.390625 C 22.335938 -46.390625 22.523438 -46.398438 22.703125 -46.421875 C 22.878906 -46.453125 23.046875 -46.46875 23.203125 -46.46875 C 25.054688 -46.46875 26.519531 -45.925781 27.59375 -44.84375 C 28.675781 -43.769531 29.21875 -41.898438 29.21875 -39.234375 C 29.21875 -36.472656 28.539062 -34.414062 27.1875 -33.0625 C 25.832031 -31.707031 24.148438 -30.929688 22.140625 -30.734375 L 17.015625 -30.28125 Z M 25.3125 -32.453125 C 26.3125 -33.160156 27.085938 -34.039062 27.640625 -35.09375 C 28.191406 -36.144531 28.46875 -37.523438 28.46875 -39.234375 C 28.46875 -40.285156 28.394531 -41.113281 28.25 -41.71875 L 25.3125 -41.5 Z M 25.3125 -32.453125 "/></g></g></g><g fill="#ffffff" fill-opacity="1"><g transform="translate(27.319824, 60.596356)"><g><path d="M 9.078125 1.5 C 8.921875 1.507812 8.753906 1.519531 8.578125 1.53125 C 8.410156 1.539062 8.234375 1.546875 8.046875 1.546875 C 6.578125 1.546875 5.273438 1.242188 4.140625 0.640625 C 3.015625 0.0351562 2.132812 -0.847656 1.5 -2.015625 C 0.875 -3.191406 0.5625 -4.609375 0.5625 -6.265625 C 0.5625 -7.554688 0.773438 -8.753906 1.203125 -9.859375 C 1.640625 -10.960938 2.304688 -11.875 3.203125 -12.59375 C 4.097656 -13.3125 5.222656 -13.726562 6.578125 -13.84375 C 6.710938 -13.863281 6.84375 -13.875 6.96875 -13.875 C 7.101562 -13.875 7.234375 -13.875 7.359375 -13.875 C 8.410156 -13.875 9.394531 -13.679688 10.3125 -13.296875 C 11.238281 -12.921875 12.054688 -12.390625 12.765625 -11.703125 C 13.484375 -11.015625 14.046875 -10.191406 14.453125 -9.234375 C 14.867188 -8.285156 15.078125 -7.226562 15.078125 -6.0625 C 15.078125 -4.769531 14.859375 -3.570312 14.421875 -2.46875 C 13.984375 -1.363281 13.320312 -0.460938 12.4375 0.234375 C 11.5625 0.941406 10.441406 1.363281 9.078125 1.5 Z M 6.609375 0.03125 C 7.910156 -0.0820312 8.988281 -0.484375 9.84375 -1.171875 C 10.695312 -1.859375 11.332031 -2.738281 11.75 -3.8125 C 12.164062 -4.882812 12.375 -6.046875 12.375 -7.296875 C 12.375 -8.484375 12.1875 -9.550781 11.8125 -10.5 C 11.445312 -11.457031 10.882812 -12.21875 10.125 -12.78125 C 9.363281 -13.34375 8.394531 -13.625 7.21875 -13.625 C 7.113281 -13.625 7.015625 -13.625 6.921875 -13.625 C 6.828125 -13.625 6.722656 -13.613281 6.609375 -13.59375 C 5.296875 -13.476562 4.207031 -13.070312 3.34375 -12.375 C 2.488281 -11.6875 1.851562 -10.8125 1.4375 -9.75 C 1.019531 -8.6875 0.8125 -7.523438 0.8125 -6.265625 C 0.8125 -5.078125 1 -4.003906 1.375 -3.046875 C 1.75 -2.097656 2.320312 -1.34375 3.09375 -0.78125 C 3.863281 -0.226562 4.828125 0.046875 5.984375 0.046875 C 6.085938 0.046875 6.1875 0.046875 6.28125 0.046875 C 6.382812 0.046875 6.492188 0.0390625 6.609375 0.03125 Z M 6.375 -3.359375 C 5.769531 -3.359375 5.300781 -3.617188 4.96875 -4.140625 C 4.632812 -4.671875 4.46875 -5.484375 4.46875 -6.578125 C 4.46875 -7.722656 4.65625 -8.585938 5.03125 -9.171875 C 5.40625 -9.753906 5.929688 -10.078125 6.609375 -10.140625 L 6.828125 -10.140625 C 7.429688 -10.140625 7.894531 -9.878906 8.21875 -9.359375 C 8.550781 -8.847656 8.71875 -8.050781 8.71875 -6.96875 C 8.71875 -5.820312 8.53125 -4.953125 8.15625 -4.359375 C 7.789062 -3.765625 7.273438 -3.429688 6.609375 -3.359375 Z M 7.3125 -3.828125 C 8.082031 -4.253906 8.46875 -5.300781 8.46875 -6.96875 C 8.46875 -7.539062 8.421875 -8.03125 8.328125 -8.4375 C 7.898438 -8.375 7.597656 -8.082031 7.421875 -7.5625 C 7.253906 -7.050781 7.171875 -6.3125 7.171875 -5.34375 C 7.171875 -4.757812 7.21875 -4.253906 7.3125 -3.828125 Z M 7.3125 -3.828125 "/></g></g></g><g fill="#ffffff" fill-opacity="1"><g transform="translate(42.959257, 60.596356)"><g><path d="M 14.390625 -3.859375 C 14.109375 -2.253906 13.53125 -0.988281 12.65625 -0.0625 C 11.78125 0.863281 10.585938 1.390625 9.078125 1.515625 C 8.921875 1.535156 8.757812 1.550781 8.59375 1.5625 C 8.425781 1.570312 8.257812 1.578125 8.09375 1.578125 C 7.082031 1.578125 6.125 1.429688 5.21875 1.140625 C 4.3125 0.859375 3.507812 0.40625 2.8125 -0.21875 C 2.113281 -0.84375 1.5625 -1.648438 1.15625 -2.640625 C 0.757812 -3.640625 0.5625 -4.847656 0.5625 -6.265625 C 0.5625 -7.671875 0.800781 -8.925781 1.28125 -10.03125 C 1.769531 -11.132812 2.460938 -12.015625 3.359375 -12.671875 C 4.265625 -13.335938 5.335938 -13.71875 6.578125 -13.8125 C 6.660156 -13.832031 6.75 -13.84375 6.84375 -13.84375 C 6.945312 -13.84375 7.046875 -13.84375 7.140625 -13.84375 C 7.910156 -13.84375 8.695312 -13.726562 9.5 -13.5 C 10.300781 -13.269531 11.050781 -12.929688 11.75 -12.484375 C 12.457031 -12.046875 13.046875 -11.503906 13.515625 -10.859375 C 13.992188 -10.210938 14.273438 -9.472656 14.359375 -8.640625 L 10.96875 -7.046875 L 8.515625 -8.265625 C 8.515625 -8.304688 8.507812 -8.335938 8.5 -8.359375 C 8.5 -8.378906 8.5 -8.398438 8.5 -8.421875 C 8.039062 -8.304688 7.710938 -8.039062 7.515625 -7.625 C 7.316406 -7.207031 7.21875 -6.445312 7.21875 -5.34375 C 7.21875 -5.039062 7.238281 -4.773438 7.28125 -4.546875 C 7.332031 -4.316406 7.398438 -4.09375 7.484375 -3.875 C 7.765625 -4.019531 7.984375 -4.238281 8.140625 -4.53125 C 8.304688 -4.832031 8.441406 -5.257812 8.546875 -5.8125 L 11.9375 -5.078125 Z M 8.734375 -5.5 C 8.617188 -4.820312 8.382812 -4.300781 8.03125 -3.9375 C 7.6875 -3.582031 7.269531 -3.382812 6.78125 -3.34375 C 6.726562 -3.34375 6.675781 -3.335938 6.625 -3.328125 C 6.570312 -3.316406 6.53125 -3.3125 6.5 -3.3125 C 5.800781 -3.3125 5.300781 -3.582031 5 -4.125 C 4.707031 -4.675781 4.5625 -5.492188 4.5625 -6.578125 C 4.5625 -7.703125 4.753906 -8.550781 5.140625 -9.125 C 5.523438 -9.695312 6.046875 -10.019531 6.703125 -10.09375 C 6.753906 -10.09375 6.800781 -10.09375 6.84375 -10.09375 C 6.894531 -10.101562 6.9375 -10.109375 6.96875 -10.109375 C 7.914062 -10.109375 8.488281 -9.609375 8.6875 -8.609375 L 11.609375 -9.984375 C 11.398438 -11.054688 10.898438 -11.925781 10.109375 -12.59375 C 9.328125 -13.257812 8.332031 -13.59375 7.125 -13.59375 C 7.039062 -13.59375 6.953125 -13.59375 6.859375 -13.59375 C 6.765625 -13.59375 6.679688 -13.585938 6.609375 -13.578125 C 5.390625 -13.472656 4.347656 -13.097656 3.484375 -12.453125 C 2.617188 -11.804688 1.957031 -10.953125 1.5 -9.890625 C 1.039062 -8.828125 0.8125 -7.617188 0.8125 -6.265625 C 0.8125 -4.773438 1.03125 -3.5625 1.46875 -2.625 C 1.914062 -1.695312 2.519531 -1.015625 3.28125 -0.578125 C 4.050781 -0.140625 4.929688 0.078125 5.921875 0.078125 C 6.035156 0.078125 6.148438 0.078125 6.265625 0.078125 C 6.378906 0.078125 6.492188 0.0664062 6.609375 0.046875 C 8.046875 -0.0664062 9.179688 -0.5625 10.015625 -1.4375 C 10.847656 -2.3125 11.390625 -3.460938 11.640625 -4.890625 Z M 8.734375 -5.5 "/></g></g></g><g fill="#ffffff" fill-opacity="1"><g transform="translate(57.518393, 60.596356)"><g><path d="M 9.078125 1.5 C 8.921875 1.507812 8.753906 1.519531 8.578125 1.53125 C 8.410156 1.539062 8.234375 1.546875 8.046875 1.546875 C 6.578125 1.546875 5.273438 1.242188 4.140625 0.640625 C 3.015625 0.0351562 2.132812 -0.847656 1.5 -2.015625 C 0.875 -3.191406 0.5625 -4.609375 0.5625 -6.265625 C 0.5625 -7.554688 0.773438 -8.753906 1.203125 -9.859375 C 1.640625 -10.960938 2.304688 -11.875 3.203125 -12.59375 C 4.097656 -13.3125 5.222656 -13.726562 6.578125 -13.84375 C 6.710938 -13.863281 6.84375 -13.875 6.96875 -13.875 C 7.101562 -13.875 7.234375 -13.875 7.359375 -13.875 C 8.410156 -13.875 9.394531 -13.679688 10.3125 -13.296875 C 11.238281 -12.921875 12.054688 -12.390625 12.765625 -11.703125 C 13.484375 -11.015625 14.046875 -10.191406 14.453125 -9.234375 C 14.867188 -8.285156 15.078125 -7.226562 15.078125 -6.0625 C 15.078125 -4.769531 14.859375 -3.570312 14.421875 -2.46875 C 13.984375 -1.363281 13.320312 -0.460938 12.4375 0.234375 C 11.5625 0.941406 10.441406 1.363281 9.078125 1.5 Z M 6.609375 0.03125 C 7.910156 -0.0820312 8.988281 -0.484375 9.84375 -1.171875 C 10.695312 -1.859375 11.332031 -2.738281 11.75 -3.8125 C 12.164062 -4.882812 12.375 -6.046875 12.375 -7.296875 C 12.375 -8.484375 12.1875 -9.550781 11.8125 -10.5 C 11.445312 -11.457031 10.882812 -12.21875 10.125 -12.78125 C 9.363281 -13.34375 8.394531 -13.625 7.21875 -13.625 C 7.113281 -13.625 7.015625 -13.625 6.921875 -13.625 C 6.828125 -13.625 6.722656 -13.613281 6.609375 -13.59375 C 5.296875 -13.476562 4.207031 -13.070312 3.34375 -12.375 C 2.488281 -11.6875 1.851562 -10.8125 1.4375 -9.75 C 1.019531 -8.6875 0.8125 -7.523438 0.8125 -6.265625 C 0.8125 -5.078125 1 -4.003906 1.375 -3.046875 C 1.75 -2.097656 2.320312 -1.34375 3.09375 -0.78125 C 3.863281 -0.226562 4.828125 0.046875 5.984375 0.046875 C 6.085938 0.046875 6.1875 0.046875 6.28125 0.046875 C 6.382812 0.046875 6.492188 0.0390625 6.609375 0.03125 Z M 6.375 -3.359375 C 5.769531 -3.359375 5.300781 -3.617188 4.96875 -4.140625 C 4.632812 -4.671875 4.46875 -5.484375 4.46875 -6.578125 C 4.46875 -7.722656 4.65625 -8.585938 5.03125 -9.171875 C 5.40625 -9.753906 5.929688 -10.078125 6.609375 -10.140625 L 6.828125 -10.140625 C 7.429688 -10.140625 7.894531 -9.878906 8.21875 -9.359375 C 8.550781 -8.847656 8.71875 -8.050781 8.71875 -6.96875 C 8.71875 -5.820312 8.53125 -4.953125 8.15625 -4.359375 C 7.789062 -3.765625 7.273438 -3.429688 6.609375 -3.359375 Z M 7.3125 -3.828125 C 8.082031 -4.253906 8.46875 -5.300781 8.46875 -6.96875 C 8.46875 -7.539062 8.421875 -8.03125 8.328125 -8.4375 C 7.898438 -8.375 7.597656 -8.082031 7.421875 -7.5625 C 7.253906 -7.050781 7.171875 -6.3125 7.171875 -5.34375 C 7.171875 -4.757812 7.21875 -4.253906 7.3125 -3.828125 Z M 7.3125 -3.828125 "/></g></g></g></svg>